<svg xmlns="http://www.w3.org/2000/svg" xmlns:xlink="http://www.w3.org/1999/xlink" width="500" zoomAndPan="magnify" viewBox="0 0 375 374.999991" height="500" preserveAspectRatio="xMidYMid meet" version="1.0"><defs><g/><clipPath id="cb55123708"><path d="M 297 22 L 315.199219 22 L 315.199219 58 L 297 58 Z M 297 22 " clip-rule="nonzero"/></clipPath><clipPath id="d113212870"><path d="M 4 0.0390625 L 15 0.0390625 L 15 8 L 4 8 Z M 4 0.0390625 " clip-rule="nonzero"/></clipPath><clipPath id="d68fb64c1f"><rect x="0" width="19" y="0" height="36"/></clipPath><clipPath id="008b10fb63"><path d="M 38 27 L 68 27 L 68 58.101562 L 38 58.101562 Z M 38 27 " clip-rule="nonzero"/></clipPath><clipPath id="765bff5758"><path d="M 40 45 L 64 45 L 64 58.101562 L 40 58.101562 Z M 40 45 " clip-rule="nonzero"/></clipPath><clipPath id="661d65eb84"><path d="M 37.050781 14.496094 L 50 14.496094 L 50 26 L 37.050781 26 Z M 37.050781 14.496094 " clip-rule="nonzero"/></clipPath><clipPath id="38365d2586"><path d="M 4 7 L 35 7 L 35 66.199219 L 4 66.199219 Z M 4 7 " clip-rule="nonzero"/></clipPath><clipPath id="1d5dc39645"><rect x="0" width="31" y="0" height="60"/></clipPath><clipPath id="cb2250f290"><rect x="0" width="211" y="0" height="59"/></clipPath><clipPath id="2b7edd8c3c"><path d="M 8.070312 1.292969 L 15.476562 1.292969 L 15.476562 8.699219 L 8.070312 8.699219 Z M 8.070312 1.292969 " clip-rule="nonzero"/></clipPath><clipPath id="0fe14cb7c3"><path d="M 9 3 L 24 3 L 24 17 L 9 17 Z M 9 3 " clip-rule="nonzero"/></clipPath><clipPath id="265519fc66"><path d="M 18.667969 2.980469 L 23.902344 8.214844 L 14.59375 17.523438 L 9.359375 12.285156 Z M 18.667969 2.980469 " clip-rule="nonzero"/></clipPath><clipPath id="e239fbc204"><path d="M 3 3 L 12 3 L 12 12 L 3 12 Z M 3 3 " clip-rule="nonzero"/></clipPath><clipPath id="da468a5a91"><path d="M 9.667969 -0.0195312 L 14.902344 5.214844 L 5.59375 14.523438 L 0.359375 9.285156 Z M 9.667969 -0.0195312 " clip-rule="nonzero"/></clipPath><clipPath id="c32f63d7f6"><path d="M 14.882812 5.195312 L 9.648438 -0.0390625 L 0.339844 9.269531 L 5.578125 14.503906 Z M 14.882812 5.195312 " clip-rule="nonzero"/></clipPath><clipPath id="d2710b2fd2"><rect x="0" width="15" y="0" height="14"/></clipPath><clipPath id="2c6dab6f8d"><path d="M 0.558594 3 L 14 3 L 14 17 L 0.558594 17 Z M 0.558594 3 " clip-rule="nonzero"/></clipPath><clipPath id="02316b99d4"><path d="M -0.152344 8.195312 L 5.082031 2.960938 L 14.390625 12.269531 L 9.15625 17.503906 Z M -0.152344 8.195312 " clip-rule="nonzero"/></clipPath><clipPath id="d6b8c32117"><path d="M 2 3 L 12 3 L 12 12 L 2 12 Z M 2 3 " clip-rule="nonzero"/></clipPath><clipPath id="d23813eade"><path d="M -0.152344 5.195312 L 5.082031 -0.0390625 L 14.390625 9.269531 L 9.15625 14.503906 Z M -0.152344 5.195312 " clip-rule="nonzero"/></clipPath><clipPath id="166e154333"><path d="M 5.0625 -0.0195312 L -0.171875 5.214844 L 9.136719 14.523438 L 14.371094 9.285156 Z M 5.0625 -0.0195312 " clip-rule="nonzero"/></clipPath><clipPath id="45bf835af6"><rect x="0" width="14" y="0" height="14"/></clipPath><clipPath id="e491d7cd81"><rect x="0" width="316" y="0" height="67"/></clipPath></defs><g transform="matrix(1, 0, 0, 1, 28, 151)"><g clip-path="url(#e491d7cd81)"><g clip-path="url(#cb55123708)"><g transform="matrix(1, 0, 0, 1, 297, 22)"><g clip-path="url(#d68fb64c1f)"><g fill="#121212" fill-opacity="1"><g transform="translate(14.633844, 34.972423)"><g><path d="M -6.265625 -9.671875 L -6.265625 -7.265625 C -6.515625 -7.234375 -6.738281 -7.164062 -6.9375 -7.0625 C -7.132812 -6.96875 -7.300781 -6.835938 -7.4375 -6.671875 C -7.582031 -6.515625 -7.691406 -6.320312 -7.765625 -6.09375 C -7.835938 -5.875 -7.875 -5.628906 -7.875 -5.359375 C -7.875 -4.878906 -7.757812 -4.46875 -7.53125 -4.125 C -7.300781 -3.78125 -6.960938 -3.515625 -6.515625 -3.328125 C -6.078125 -3.148438 -5.546875 -3.0625 -4.921875 -3.0625 C -4.265625 -3.0625 -3.710938 -3.15625 -3.265625 -3.34375 C -2.828125 -3.53125 -2.5 -3.789062 -2.28125 -4.125 C -2.0625 -4.46875 -1.953125 -4.875 -1.953125 -5.34375 C -1.953125 -5.601562 -1.984375 -5.84375 -2.046875 -6.0625 C -2.117188 -6.28125 -2.21875 -6.46875 -2.34375 -6.625 C -2.46875 -6.789062 -2.625 -6.925781 -2.8125 -7.03125 C -3 -7.144531 -3.210938 -7.222656 -3.453125 -7.265625 L -3.4375 -9.671875 C -3 -9.628906 -2.566406 -9.5 -2.140625 -9.28125 C -1.722656 -9.070312 -1.34375 -8.785156 -1 -8.421875 C -0.65625 -8.054688 -0.378906 -7.613281 -0.171875 -7.09375 C 0.0351562 -6.570312 0.140625 -5.972656 0.140625 -5.296875 C 0.140625 -4.410156 -0.0546875 -3.613281 -0.453125 -2.90625 C -0.847656 -2.207031 -1.421875 -1.65625 -2.171875 -1.25 C -2.921875 -0.84375 -3.835938 -0.640625 -4.921875 -0.640625 C -5.992188 -0.640625 -6.90625 -0.84375 -7.65625 -1.25 C -8.414062 -1.664062 -8.988281 -2.222656 -9.375 -2.921875 C -9.769531 -3.628906 -9.96875 -4.421875 -9.96875 -5.296875 C -9.96875 -5.890625 -9.882812 -6.4375 -9.71875 -6.9375 C -9.550781 -7.445312 -9.3125 -7.894531 -9 -8.28125 C -8.6875 -8.664062 -8.300781 -8.976562 -7.84375 -9.21875 C -7.382812 -9.457031 -6.859375 -9.609375 -6.265625 -9.671875 Z M -6.265625 -9.671875 "/></g></g></g><g fill="#121212" fill-opacity="1"><g transform="translate(14.633844, 25.440465)"><g><path d="M 0 -2.875 L 0 -0.3125 L -9.828125 -3.640625 L -9.828125 -6.796875 L 0 -10.109375 L 0 -7.5625 L -7.359375 -5.25 L -7.359375 -5.171875 Z M -3.875 -2.53125 L -3.875 -7.859375 L -2.0625 -7.859375 L -2.0625 -2.53125 Z M -3.875 -2.53125 "/></g></g></g><g fill="#121212" fill-opacity="1"><g transform="translate(14.633844, 15.510104)"><g><path d="M 0 -0.75 L -9.828125 -0.75 L -9.828125 -7.453125 L -7.90625 -7.453125 L -7.90625 -3.125 L -5.890625 -3.125 L -5.890625 -7.03125 L -3.953125 -7.03125 L -3.953125 -3.125 L 0 -3.125 Z M 0 -0.75 "/></g></g></g><g clip-path="url(#d113212870)"><g fill="#121212" fill-opacity="1"><g transform="translate(14.633844, 8.109365)"><g><path d="M 0 -0.75 L -9.828125 -0.75 L -9.828125 -7.59375 L -7.90625 -7.59375 L -7.90625 -3.125 L -5.890625 -3.125 L -5.890625 -7.25 L -3.953125 -7.25 L -3.953125 -3.125 L -1.921875 -3.125 L -1.921875 -7.59375 L 0 -7.59375 Z M 0 -0.75 "/></g></g></g></g></g></g></g><path fill="#12271d" d="M 57.457031 39.789062 C 53.828125 39.789062 44.910156 39.144531 40.269531 35.242188 C 40.164062 35.15625 40.152344 35 40.238281 34.894531 C 40.328125 34.792969 40.484375 34.777344 40.585938 34.867188 C 45.875 39.3125 56.933594 39.421875 58.746094 39.257812 L 59.046875 39.230469 C 59.964844 39.148438 61.109375 39.042969 62.035156 38.882812 C 63.488281 38.628906 63.5625 38.371094 63.5625 38.367188 C 63.566406 38.316406 63.554688 38.277344 63.519531 38.234375 C 63.390625 38.078125 63 37.957031 62.5 37.914062 C 62.363281 37.902344 62.261719 37.792969 62.261719 37.660156 C 62.261719 37.523438 62.359375 37.414062 62.496094 37.398438 C 63.152344 37.335938 64.144531 37.234375 64.28125 37.019531 C 64.285156 37.011719 64.296875 36.996094 64.273438 36.9375 C 64.207031 36.757812 63.554688 36.550781 62.480469 36.519531 L 62.25 36.511719 L 62.234375 36.273438 C 62.230469 36.136719 62.332031 36.023438 62.464844 36.011719 C 63.863281 35.875 64.644531 35.539062 64.691406 35.386719 C 64.6875 35.386719 64.679688 35.363281 64.640625 35.324219 C 64.421875 35.101562 63.34375 35.117188 62.015625 35.367188 L 61.789062 35.410156 L 61.726562 35.179688 C 61.691406 35.050781 61.765625 34.917969 61.894531 34.878906 C 62.609375 34.65625 63.070312 34.3125 63.164062 34.15625 C 63.144531 34.148438 63.109375 34.136719 63.066406 34.128906 C 62.558594 34.039062 61.175781 34.277344 60.050781 34.527344 C 59.917969 34.558594 59.785156 34.488281 59.738281 34.359375 C 59.6875 34.230469 59.742188 34.089844 59.863281 34.023438 C 60.417969 33.722656 60.550781 33.441406 60.539062 33.394531 C 60.535156 33.382812 60.484375 33.339844 60.339844 33.316406 C 60.144531 33.28125 59.800781 33.40625 59.363281 33.570312 C 58.40625 33.925781 56.804688 34.519531 54.203125 34.382812 C 50.859375 34.214844 43.816406 33.15625 42.683594 31.492188 C 42.609375 31.378906 42.636719 31.226562 42.75 31.152344 C 42.863281 31.074219 43.015625 31.101562 43.089844 31.214844 C 43.984375 32.527344 50.382812 33.695312 54.226562 33.894531 C 56.726562 34.019531 58.210938 33.472656 59.191406 33.109375 C 59.71875 32.914062 60.101562 32.769531 60.429688 32.828125 C 60.894531 32.914062 61.003906 33.171875 61.027344 33.316406 C 61.054688 33.488281 60.992188 33.675781 60.851562 33.859375 C 61.664062 33.707031 62.660156 33.558594 63.148438 33.644531 C 63.582031 33.722656 63.664062 33.960938 63.671875 34.097656 C 63.683594 34.304688 63.542969 34.507812 63.328125 34.691406 C 64.058594 34.640625 64.714844 34.691406 64.996094 34.980469 C 65.226562 35.21875 65.191406 35.441406 65.152344 35.554688 C 65.035156 35.875 64.554688 36.089844 64.019531 36.238281 C 64.371094 36.351562 64.644531 36.519531 64.734375 36.765625 C 64.824219 37 64.765625 37.175781 64.699219 37.277344 C 64.546875 37.523438 64.210938 37.652344 63.699219 37.746094 C 63.777344 37.796875 63.84375 37.855469 63.898438 37.921875 C 64.015625 38.0625 64.070312 38.234375 64.050781 38.417969 C 63.976562 39.152344 62.390625 39.425781 59.089844 39.722656 L 58.792969 39.746094 C 58.527344 39.773438 58.066406 39.789062 57.457031 39.789062 Z M 57.457031 39.789062 " fill-opacity="1" fill-rule="nonzero"/><path fill="#12271d" d="M 73.960938 37.988281 C 73.644531 37.988281 73.40625 37.917969 73.28125 37.746094 C 73.171875 37.59375 73.132812 37.417969 73.164062 37.234375 C 73.179688 37.152344 73.207031 37.066406 73.25 36.984375 C 72.757812 37.160156 72.402344 37.214844 72.148438 37.078125 C 72.039062 37.023438 71.902344 36.898438 71.863281 36.652344 C 71.820312 36.394531 71.96875 36.113281 72.21875 35.839844 C 71.683594 35.976562 71.15625 36.03125 70.898438 35.8125 C 70.804688 35.734375 70.664062 35.558594 70.746094 35.234375 C 70.847656 34.84375 71.390625 34.472656 72.046875 34.152344 C 71.769531 34.101562 71.546875 33.996094 71.453125 33.808594 C 71.394531 33.6875 71.34375 33.441406 71.679688 33.15625 C 72.0625 32.835938 73 32.46875 73.777344 32.195312 C 73.566406 32.105469 73.417969 31.976562 73.355469 31.8125 C 73.304688 31.675781 73.269531 31.398438 73.632812 31.09375 C 73.886719 30.878906 74.289062 30.8125 74.84375 30.71875 C 75.875 30.542969 77.433594 30.28125 79.535156 28.921875 L 79.714844 28.804688 L 79.855469 28.964844 C 80.898438 30.160156 81.335938 31.398438 81.152344 32.652344 C 80.957031 34.007812 80 35.324219 78.53125 36.257812 C 77.5 36.910156 75.175781 37.988281 73.960938 37.988281 Z M 74.226562 36.0625 C 74.316406 36.0625 74.40625 36.109375 74.453125 36.195312 C 74.519531 36.3125 74.484375 36.457031 74.375 36.53125 C 73.960938 36.816406 73.683594 37.117188 73.648438 37.320312 C 73.640625 37.375 73.648438 37.414062 73.679688 37.457031 C 73.722656 37.507812 74.140625 37.617188 75.433594 37.175781 C 76.394531 36.847656 77.503906 36.324219 78.265625 35.839844 C 79.613281 34.984375 80.488281 33.796875 80.664062 32.582031 C 80.816406 31.53125 80.464844 30.480469 79.621094 29.449219 C 77.519531 30.765625 75.902344 31.039062 74.925781 31.203125 C 74.464844 31.28125 74.101562 31.34375 73.949219 31.46875 C 73.835938 31.566406 73.816406 31.625 73.816406 31.636719 C 73.828125 31.6875 74.085938 31.863281 74.71875 31.84375 C 74.855469 31.839844 74.96875 31.9375 74.992188 32.074219 C 75.015625 32.207031 74.9375 32.335938 74.808594 32.375 C 73.707031 32.71875 72.390625 33.203125 71.996094 33.535156 C 71.960938 33.566406 71.9375 33.589844 71.921875 33.605469 C 72.082031 33.695312 72.652344 33.765625 73.382812 33.601562 L 73.609375 33.546875 L 73.679688 33.777344 C 73.71875 33.90625 73.648438 34.042969 73.519531 34.085938 C 72.246094 34.53125 71.300781 35.054688 71.222656 35.359375 C 71.210938 35.417969 71.214844 35.4375 71.214844 35.4375 C 71.328125 35.542969 72.171875 35.449219 73.453125 34.867188 L 73.664062 34.769531 L 73.785156 34.976562 C 73.847656 35.097656 73.808594 35.242188 73.695312 35.3125 C 72.777344 35.878906 72.316406 36.386719 72.347656 36.574219 C 72.359375 36.632812 72.375 36.640625 72.382812 36.644531 C 72.609375 36.765625 73.519531 36.355469 74.121094 36.085938 C 74.15625 36.070312 74.191406 36.0625 74.226562 36.0625 Z M 73.660156 35.316406 Z M 73.492188 34.082031 C 73.492188 34.082031 73.488281 34.082031 73.488281 34.082031 C 73.488281 34.082031 73.488281 34.082031 73.492188 34.082031 Z M 74.730469 32.339844 Z M 74.730469 32.339844 " fill-opacity="1" fill-rule="nonzero"/><path fill="#12271d" d="M 47.539062 38.597656 C 47.484375 38.597656 47.429688 38.582031 47.382812 38.542969 C 47.277344 38.457031 47.261719 38.304688 47.347656 38.199219 C 48.714844 36.515625 48.566406 33.527344 48.566406 33.496094 C 48.558594 33.359375 48.660156 33.242188 48.796875 33.234375 C 48.933594 33.230469 49.050781 33.332031 49.058594 33.46875 C 49.0625 33.597656 49.21875 36.679688 47.730469 38.507812 C 47.679688 38.566406 47.609375 38.597656 47.539062 38.597656 Z M 47.539062 38.597656 " fill-opacity="1" fill-rule="nonzero"/><path fill="#12271d" d="M 66.574219 52.933594 C 66.460938 52.933594 66.359375 52.859375 66.332031 52.746094 C 66.300781 52.613281 66.382812 52.480469 66.515625 52.449219 C 70.796875 51.429688 74.820312 48.554688 77.011719 44.941406 C 78.378906 42.691406 79.257812 39.199219 79.554688 34.851562 C 79.5625 34.714844 79.683594 34.613281 79.816406 34.621094 C 79.953125 34.628906 80.054688 34.746094 80.046875 34.882812 C 79.835938 37.972656 79.210938 42.269531 77.433594 45.199219 C 75.175781 48.917969 71.035156 51.878906 66.628906 52.929688 C 66.609375 52.933594 66.589844 52.933594 66.574219 52.933594 Z M 66.574219 52.933594 " fill-opacity="1" fill-rule="nonzero"/><path fill="#12271d" d="M 61.570312 53.253906 C 61.558594 53.253906 61.550781 53.253906 61.542969 53.253906 C 58.722656 52.925781 56.136719 51.746094 53.859375 49.746094 C 51.074219 47.304688 48.71875 43.277344 47.226562 38.40625 C 47.1875 38.277344 47.261719 38.136719 47.390625 38.097656 C 47.519531 38.058594 47.660156 38.132812 47.699219 38.261719 C 49.164062 43.046875 51.464844 46.992188 54.183594 49.375 C 56.386719 51.308594 58.882812 52.445312 61.597656 52.761719 C 61.734375 52.777344 61.832031 52.902344 61.816406 53.035156 C 61.800781 53.160156 61.695312 53.253906 61.570312 53.253906 Z M 61.570312 53.253906 " fill-opacity="1" fill-rule="nonzero"/><path fill="#12271d" d="M 46.25 33.125 C 46.128906 33.125 46.023438 33.035156 46.007812 32.910156 C 45.710938 30.734375 45.671875 28.683594 45.890625 26.984375 C 45.90625 26.847656 46.03125 26.753906 46.167969 26.769531 C 46.300781 26.789062 46.398438 26.910156 46.378906 27.046875 C 46.164062 28.703125 46.207031 30.707031 46.496094 32.84375 C 46.515625 32.976562 46.417969 33.101562 46.285156 33.121094 C 46.273438 33.121094 46.261719 33.121094 46.25 33.121094 Z M 46.25 33.125 " fill-opacity="1" fill-rule="nonzero"/><path fill="#12271d" d="M 79.863281 29.476562 C 79.730469 29.476562 79.621094 29.371094 79.617188 29.238281 C 79.476562 25.929688 79.074219 23.644531 78.847656 23.328125 C 77.265625 21.128906 72.089844 19.449219 65.664062 19.054688 C 59.070312 18.648438 52.921875 19.660156 49.617188 21.695312 C 49.5 21.765625 49.347656 21.730469 49.277344 21.613281 C 49.207031 21.496094 49.242188 21.347656 49.355469 21.273438 C 52.742188 19.1875 59.003906 18.148438 65.691406 18.5625 C 70.921875 18.882812 77.230469 20.230469 79.246094 23.042969 C 79.605469 23.539062 79.984375 26.253906 80.109375 29.21875 C 80.113281 29.355469 80.007812 29.46875 79.871094 29.476562 C 79.871094 29.476562 79.867188 29.476562 79.863281 29.476562 Z M 79.863281 29.476562 " fill-opacity="1" fill-rule="nonzero"/><path fill="#12271d" d="M 62.980469 29.195312 C 55.207031 29.195312 49.398438 27.941406 48.183594 26 C 48.109375 25.882812 48.144531 25.730469 48.261719 25.660156 C 48.375 25.585938 48.527344 25.621094 48.601562 25.738281 C 49.691406 27.484375 55.605469 28.703125 62.980469 28.703125 C 71.550781 28.703125 77.308594 26.625 77.308594 24.683594 C 77.308594 22.660156 71.132812 20.394531 62.867188 20.394531 C 56.574219 20.394531 51.554688 22.023438 49.550781 23.535156 C 49.441406 23.617188 49.289062 23.59375 49.207031 23.484375 C 49.125 23.378906 49.144531 23.222656 49.253906 23.140625 C 51.390625 21.527344 56.425781 19.902344 62.867188 19.902344 C 70.960938 19.902344 77.800781 22.09375 77.800781 24.683594 C 77.800781 25.941406 76.222656 27.097656 73.355469 27.9375 C 70.582031 28.75 66.898438 29.195312 62.980469 29.195312 Z M 62.980469 29.195312 " fill-opacity="1" fill-rule="nonzero"/><path fill="#12271d" d="M 48.609375 26.148438 C 50.214844 27.910156 56.128906 28.949219 62.980469 28.949219 C 70.054688 28.949219 75.949219 27.472656 77.277344 25.515625 C 76.816406 23.316406 70.523438 21.34375 62.953125 21.34375 C 55.195312 21.34375 48.777344 23.871094 48.609375 26.148438 Z M 48.609375 26.148438 " fill-opacity="1" fill-rule="nonzero"/><path fill="#12271d" d="M 79.046875 40.484375 C 78.949219 40.484375 78.855469 40.425781 78.816406 40.328125 C 78.769531 40.199219 78.832031 40.058594 78.957031 40.007812 C 81.59375 38.988281 83.992188 36.28125 84.933594 33.265625 C 85.554688 31.28125 85.414062 29.472656 84.535156 28.179688 C 83.730469 26.992188 82.84375 26.328125 81.898438 26.207031 C 80.730469 26.054688 79.855469 26.804688 79.847656 26.8125 C 79.742188 26.898438 79.589844 26.890625 79.5 26.789062 C 79.410156 26.683594 79.417969 26.53125 79.519531 26.441406 C 79.5625 26.402344 80.558594 25.539062 81.953125 25.714844 C 83.046875 25.855469 84.054688 26.589844 84.945312 27.902344 C 85.90625 29.324219 86.070312 31.28125 85.40625 33.414062 C 84.421875 36.5625 81.902344 39.394531 79.136719 40.46875 C 79.105469 40.480469 79.078125 40.484375 79.046875 40.484375 Z M 79.046875 40.484375 " fill-opacity="1" fill-rule="nonzero"/><path fill="#12271d" d="M 79.515625 37.90625 C 79.429688 37.90625 79.347656 37.863281 79.300781 37.78125 C 79.234375 37.664062 79.273438 37.515625 79.394531 37.445312 C 83.191406 35.28125 83.976562 32.007812 83.101562 29.882812 C 82.28125 27.894531 80.019531 28.449219 79.925781 28.472656 C 79.792969 28.507812 79.65625 28.429688 79.625 28.296875 C 79.589844 28.164062 79.667969 28.03125 79.800781 27.996094 C 79.828125 27.988281 82.570312 27.308594 83.554688 29.695312 C 84.511719 32.011719 83.695312 35.558594 79.636719 37.875 C 79.597656 37.894531 79.558594 37.90625 79.515625 37.90625 Z M 79.515625 37.90625 " fill-opacity="1" fill-rule="nonzero"/><g clip-path="url(#008b10fb63)"><path fill="#12271d" d="M 62.316406 58.460938 C 57.625 58.460938 53.535156 57.03125 50.890625 55.804688 C 47.625 54.292969 44.710938 52.25 42.890625 50.199219 C 41.257812 48.355469 39.878906 45.078125 39.203125 41.4375 C 38.503906 37.683594 38.679688 34.34375 39.679688 32.269531 C 40.902344 29.730469 42.875 28.367188 44.3125 27.667969 C 44.433594 27.609375 44.582031 27.660156 44.640625 27.78125 C 44.699219 27.90625 44.648438 28.050781 44.527344 28.109375 C 43.160156 28.773438 41.285156 30.074219 40.125 32.484375 C 38.140625 36.59375 39.84375 46.019531 43.261719 49.871094 C 46.078125 53.046875 53.679688 57.96875 62.3125 57.96875 C 62.5 57.96875 62.683594 57.964844 62.871094 57.960938 C 63.332031 57.949219 63.742188 57.710938 63.972656 57.324219 C 64.867188 55.824219 66.960938 52.074219 67.074219 49.710938 C 67.101562 49.152344 66.988281 48.800781 66.734375 48.664062 C 66.136719 48.335938 64.730469 49.074219 63.707031 49.808594 C 63.554688 49.917969 63.363281 49.964844 63.175781 49.941406 C 61.574219 49.742188 53.453125 48.625 50.792969 46.144531 C 50.695312 46.050781 50.6875 45.894531 50.78125 45.796875 C 50.875 45.695312 51.03125 45.691406 51.128906 45.785156 C 53.730469 48.210938 62.273438 49.332031 63.238281 49.453125 C 63.300781 49.460938 63.367188 49.445312 63.421875 49.40625 C 64.160156 48.875 65.992188 47.699219 66.972656 48.230469 C 67.402344 48.46875 67.605469 48.972656 67.566406 49.734375 C 67.449219 52.210938 65.308594 56.042969 64.394531 57.578125 C 64.078125 58.113281 63.511719 58.4375 62.882812 58.453125 C 62.695312 58.460938 62.503906 58.460938 62.316406 58.460938 Z M 62.316406 58.460938 " fill-opacity="1" fill-rule="nonzero"/></g><g clip-path="url(#765bff5758)"><path fill="#12271d" d="M 59.871094 58.085938 C 59.871094 58.085938 50.808594 56.734375 45.667969 52.300781 C 40.523438 47.867188 40.925781 46.011719 40.925781 46.011719 C 40.925781 46.011719 48.558594 47.25 50.484375 45.210938 C 50.484375 45.210938 51 46.585938 54.953125 47.898438 C 58.90625 49.214844 63.40625 49.722656 63.40625 49.722656 C 63.40625 49.722656 61.980469 56.386719 60.023438 58.101562 Z M 59.871094 58.085938 " fill-opacity="1" fill-rule="nonzero"/></g><path fill="#12271d" d="M 76.914062 53.496094 C 74.285156 53.496094 71.578125 53.050781 68.859375 52.167969 C 68.730469 52.125 68.660156 51.984375 68.699219 51.855469 C 68.742188 51.726562 68.882812 51.65625 69.011719 51.699219 C 71.875 52.628906 74.722656 53.066406 77.46875 52.996094 C 77.929688 52.984375 78.339844 52.75 78.570312 52.359375 C 79.464844 50.859375 81.558594 47.109375 81.671875 44.746094 C 81.699219 44.1875 81.585938 43.835938 81.335938 43.699219 C 80.734375 43.371094 79.328125 44.109375 78.304688 44.84375 C 78.152344 44.953125 77.960938 45 77.773438 44.976562 C 77.6875 44.964844 77.570312 44.953125 77.429688 44.933594 C 77.296875 44.914062 77.203125 44.792969 77.21875 44.65625 C 77.238281 44.519531 77.363281 44.425781 77.496094 44.445312 C 77.632812 44.460938 77.75 44.476562 77.835938 44.488281 C 77.902344 44.496094 77.964844 44.480469 78.019531 44.441406 C 78.761719 43.910156 80.589844 42.734375 81.570312 43.265625 C 82 43.503906 82.203125 44.007812 82.164062 44.769531 C 82.046875 47.246094 79.90625 51.078125 78.992188 52.613281 C 78.675781 53.148438 78.109375 53.472656 77.480469 53.488281 C 77.292969 53.496094 77.101562 53.496094 76.914062 53.496094 Z M 76.914062 53.496094 " fill-opacity="1" fill-rule="nonzero"/><path fill="#12271d" d="M 74.46875 53.121094 C 74.394531 53.109375 74.320312 53.097656 74.246094 53.085938 C 73.566406 52.972656 72.890625 52.832031 72.21875 52.675781 C 71.679688 52.550781 71.144531 52.417969 70.609375 52.273438 C 70.308594 52.191406 70.003906 52.105469 69.703125 52.015625 C 69.53125 51.964844 69.105469 51.742188 68.921875 51.816406 C 70.757812 51.089844 72.457031 50.035156 73.941406 48.738281 C 74.738281 48.039062 75.476562 47.265625 76.136719 46.4375 C 76.46875 46.023438 76.78125 45.59375 77.074219 45.152344 C 77.195312 44.96875 77.277344 44.703125 77.503906 44.691406 C 77.53125 44.691406 78.003906 44.769531 78.003906 44.757812 C 78 44.789062 76.574219 51.425781 74.625 53.136719 Z M 74.46875 53.121094 " fill-opacity="1" fill-rule="nonzero"/><path fill="#12271d" d="M 46.011719 27.257812 C 45.347656 27.257812 44.679688 27.089844 44.070312 26.75 C 43.128906 26.230469 42.589844 24.742188 42.402344 24.128906 C 42.390625 24.089844 42.355469 24.0625 42.320312 24.058594 C 41.433594 23.953125 40.871094 23.476562 40.78125 22.742188 C 40.695312 22.050781 40.945312 21.695312 41.164062 21.519531 C 41.542969 21.222656 42.054688 21.257812 42.410156 21.386719 C 42.746094 21.511719 42.992188 21.683594 43.140625 21.800781 C 43.164062 21.820312 43.195312 21.820312 43.214844 21.796875 C 43.667969 21.285156 44.585938 20.410156 45.609375 20.3125 C 46.726562 20.207031 47.203125 19.429688 47.296875 19.035156 L 47.371094 18.730469 L 47.648438 18.871094 C 47.71875 18.910156 49.347656 19.761719 49.695312 21.339844 C 50.046875 22.941406 49.050781 26.175781 47.722656 26.851562 C 47.1875 27.125 46.601562 27.257812 46.011719 27.257812 Z M 44.308594 26.320312 C 44.792969 26.589844 46.078125 27.136719 47.5 26.414062 C 48.613281 25.84375 49.519531 22.84375 49.214844 21.445312 C 48.992188 20.433594 48.101562 19.742188 47.667969 19.457031 C 47.417969 19.988281 46.808594 20.695312 45.65625 20.804688 C 44.769531 20.886719 43.910156 21.757812 43.582031 22.125 C 43.386719 22.34375 43.058594 22.371094 42.832031 22.183594 C 42.710938 22.089844 42.511719 21.953125 42.238281 21.851562 C 42.019531 21.769531 41.6875 21.734375 41.472656 21.90625 C 41.25 22.082031 41.238281 22.425781 41.269531 22.683594 C 41.355469 23.351562 42 23.523438 42.375 23.566406 C 42.609375 23.59375 42.804688 23.757812 42.871094 23.984375 C 43.003906 24.417969 43.503906 25.875 44.308594 26.320312 Z M 44.308594 26.320312 " fill-opacity="1" fill-rule="nonzero"/><path fill="#12271d" d="M 47.179688 24.5625 C 47.132812 24.5625 47.097656 24.5625 47.082031 24.5625 C 46.945312 24.550781 46.84375 24.429688 46.855469 24.296875 C 46.867188 24.160156 46.984375 24.058594 47.121094 24.070312 C 47.253906 24.078125 47.519531 24.046875 47.527344 23.957031 C 47.546875 23.707031 47.359375 23.0625 47.234375 22.714844 C 47.1875 22.585938 47.253906 22.445312 47.382812 22.398438 C 47.511719 22.355469 47.652344 22.421875 47.699219 22.550781 C 47.734375 22.652344 48.050781 23.5625 48.019531 23.996094 C 48.007812 24.144531 47.941406 24.273438 47.828125 24.371094 C 47.628906 24.539062 47.339844 24.5625 47.179688 24.5625 Z M 47.179688 24.5625 " fill-opacity="1" fill-rule="nonzero"/><path fill="#12271d" d="M 46.804688 25.785156 C 45.835938 25.785156 45.195312 25.019531 44.976562 24.570312 C 44.917969 24.449219 44.96875 24.300781 45.089844 24.242188 C 45.214844 24.183594 45.359375 24.234375 45.421875 24.355469 C 45.441406 24.402344 45.980469 25.460938 47.058594 25.269531 C 47.191406 25.246094 47.320312 25.335938 47.34375 25.46875 C 47.367188 25.601562 47.277344 25.730469 47.144531 25.753906 C 47.027344 25.773438 46.914062 25.785156 46.804688 25.785156 Z M 46.804688 25.785156 " fill-opacity="1" fill-rule="nonzero"/><path fill="#12271d" d="M 49.019531 22.730469 C 49.019531 22.890625 48.972656 23.03125 48.875 23.144531 C 48.777344 23.261719 48.664062 23.316406 48.527344 23.316406 C 48.390625 23.316406 48.273438 23.261719 48.175781 23.144531 C 48.078125 23.03125 48.03125 22.890625 48.03125 22.730469 C 48.03125 22.566406 48.078125 22.429688 48.175781 22.3125 C 48.273438 22.199219 48.390625 22.140625 48.527344 22.140625 C 48.664062 22.140625 48.777344 22.199219 48.875 22.3125 C 48.972656 22.429688 49.019531 22.566406 49.019531 22.730469 Z M 49.019531 22.730469 " fill-opacity="1" fill-rule="nonzero"/><path fill="#12271d" d="M 46.746094 22.679688 C 46.746094 22.84375 46.699219 22.980469 46.601562 23.09375 C 46.503906 23.210938 46.386719 23.269531 46.25 23.269531 C 46.113281 23.269531 46 23.210938 45.902344 23.09375 C 45.804688 22.980469 45.757812 22.84375 45.757812 22.679688 C 45.757812 22.515625 45.804688 22.378906 45.902344 22.265625 C 46 22.148438 46.113281 22.089844 46.25 22.089844 C 46.386719 22.089844 46.503906 22.148438 46.601562 22.265625 C 46.699219 22.378906 46.746094 22.515625 46.746094 22.679688 Z M 46.746094 22.679688 " fill-opacity="1" fill-rule="nonzero"/><path fill="#12271d" d="M 45.667969 29.226562 C 45.273438 29.226562 44.941406 29.101562 44.679688 28.855469 C 43.917969 28.136719 44.070312 26.644531 44.078125 26.578125 C 44.09375 26.445312 44.214844 26.347656 44.347656 26.359375 C 44.484375 26.375 44.582031 26.496094 44.566406 26.632812 C 44.566406 26.644531 44.433594 27.949219 45.015625 28.496094 C 45.242188 28.707031 45.550781 28.777344 45.957031 28.707031 C 46.09375 28.683594 46.21875 28.773438 46.242188 28.90625 C 46.265625 29.042969 46.175781 29.167969 46.042969 29.191406 C 45.914062 29.214844 45.789062 29.226562 45.667969 29.226562 Z M 45.667969 29.226562 " fill-opacity="1" fill-rule="nonzero"/><g clip-path="url(#661d65eb84)"><path fill="#12271d" d="M 40.996094 22.042969 C 41.144531 21.792969 41.441406 21.710938 41.714844 21.703125 C 41.855469 21.699219 42.0625 21.6875 42.183594 21.757812 C 42.234375 21.789062 42.261719 21.847656 42.320312 21.875 C 42.390625 21.910156 42.472656 21.902344 42.546875 21.925781 C 42.761719 21.988281 42.867188 22.339844 43 22.5 C 43.105469 22.628906 43.269531 22.726562 43.429688 22.691406 C 43.609375 22.652344 43.710938 22.46875 43.820312 22.320312 C 44.089844 21.945312 44.515625 21.703125 44.949219 21.546875 C 45.386719 21.390625 45.847656 21.308594 46.296875 21.1875 C 46.742188 21.0625 47.1875 20.890625 47.535156 20.585938 C 47.882812 20.277344 48.121094 19.8125 48.054688 19.351562 C 48.296875 19.621094 48.570312 19.851562 48.804688 20.125 C 48.921875 20.261719 49.03125 20.402344 49.132812 20.546875 C 49.160156 20.589844 49.40625 20.914062 49.386719 20.941406 C 49.386719 20.941406 49.910156 20.171875 48.609375 18.304688 C 47.308594 16.441406 43.609375 16.972656 42.765625 17.742188 C 42.765625 17.742188 42.71875 15.015625 40.429688 14.773438 C 38.136719 14.535156 37.046875 16.628906 37.230469 18.292969 C 37.414062 19.957031 40.257812 20.398438 40.257812 20.398438 C 40.257812 20.398438 39.5625 22.378906 40.429688 23.976562 C 41.296875 25.570312 43.257812 25.71875 43.257812 25.71875 C 43.257812 25.71875 42.964844 23.910156 42.347656 23.8125 C 41.730469 23.714844 40.652344 22.636719 40.996094 22.042969 Z M 40.996094 22.042969 " fill-opacity="1" fill-rule="nonzero"/></g><g clip-path="url(#38365d2586)"><g transform="matrix(1, 0, 0, 1, 4, 7)"><g clip-path="url(#1d5dc39645)"><g fill="#12271d" fill-opacity="1"><g transform="translate(0.687961, 49.239356)"><g><path d="M 12.25 -13.75 L 29.03125 -14.421875 L 29.03125 0 L 1.359375 0 L 1.359375 -33.875 L 13.453125 -33.875 Z M 12.25 -13.75 "/></g></g></g></g></g></g><g transform="matrix(1, 0, 0, 1, 85, 7)"><g clip-path="url(#cb2250f290)"><g fill="#12271d" fill-opacity="1"><g transform="translate(0.997316, 49.019454)"><g><path d="M 15.96875 0 L 1.203125 0 L 3.921875 -33.875 L 17.8125 -33.875 L 20.609375 -14.90625 L 21.34375 -14.90625 L 24.203125 -33.875 L 38.03125 -33.875 L 40.796875 0 L 25.984375 0 L 28.453125 -20.515625 L 27.734375 -20.609375 L 23.421875 -4.109375 L 18.53125 -4.109375 L 14.28125 -20.609375 L 13.5 -20.515625 Z M 15.96875 0 "/></g></g></g><g fill="#12271d" fill-opacity="1"><g transform="translate(42.80337, 49.019454)"><g><path d="M 0.96875 -19.15625 L 0.96875 -33.875 L 27.875 -33.875 L 27.875 -19.15625 L 19.3125 -19.84375 L 19.453125 -14.03125 L 27.875 -14.703125 L 27.875 0 L 0.96875 0 L 0.96875 -14.703125 L 9.390625 -14.03125 L 9.53125 -19.84375 Z M 0.96875 -19.15625 "/></g></g></g><g fill="#12271d" fill-opacity="1"><g transform="translate(71.44825, 49.019454)"><g><path d="M 34.796875 0 L 24.484375 0 L 13.265625 -18.875 L 12.625 -18.671875 L 15.734375 0 L 1.359375 0 L 1.359375 -33.875 L 11.953125 -33.875 L 22.84375 -18.875 L 23.5625 -19.0625 L 21.046875 -33.875 L 34.796875 -33.875 Z M 34.796875 0 "/></g></g></g><g fill="#12271d" fill-opacity="1"><g transform="translate(107.399519, 49.019454)"><g><path d="M 15.578125 -6.96875 L 14.65625 0 L -0.578125 0 L 10.9375 -33.875 L 24.671875 -33.875 L 36.203125 0 L 21.046875 0 L 20.125 -6.96875 Z M 18.25 -21.140625 L 17.421875 -21.140625 L 16.203125 -10.640625 L 19.40625 -10.640625 Z M 18.25 -21.140625 "/></g></g></g><g fill="#12271d" fill-opacity="1"><g transform="translate(142.818535, 49.019454)"><g><path d="M 15.828125 -13.265625 L 12.390625 -13.265625 L 13.6875 0 L 1.359375 0 L 1.359375 -33.875 L 18.875 -33.875 C 21.644531 -33.84375 24.101562 -33.503906 26.25 -32.859375 C 28.394531 -32.210938 30.070312 -31.160156 31.28125 -29.703125 C 32.488281 -28.253906 33.09375 -26.273438 33.09375 -23.765625 C 33.09375 -21.210938 31.957031 -19.132812 29.6875 -17.53125 C 27.414062 -15.9375 23.972656 -15.140625 19.359375 -15.140625 L 19.359375 -14.5625 L 22.359375 -14.5625 C 25.003906 -14.5625 27.179688 -13.945312 28.890625 -12.71875 C 30.597656 -11.5 31.820312 -9.800781 32.5625 -7.625 C 33.3125 -5.445312 33.523438 -2.90625 33.203125 0 L 19.3125 0 C 19.695312 -1.613281 19.925781 -3.203125 20 -4.765625 C 20.082031 -6.328125 20.003906 -7.753906 19.765625 -9.046875 C 19.523438 -10.335938 19.082031 -11.363281 18.4375 -12.125 C 17.789062 -12.882812 16.921875 -13.265625 15.828125 -13.265625 Z M 18.1875 -20.078125 L 12.390625 -20.078125 L 12.390625 -16.75 L 18.140625 -16.75 C 19.273438 -16.75 20.179688 -16.882812 20.859375 -17.15625 C 21.535156 -17.425781 21.875 -17.835938 21.875 -18.390625 C 21.875 -19.035156 21.523438 -19.476562 20.828125 -19.71875 C 20.140625 -19.957031 19.257812 -20.078125 18.1875 -20.078125 Z M 18.1875 -20.078125 "/></g></g></g><g fill="#12271d" fill-opacity="1"><g transform="translate(173.349744, 49.019454)"><g><path d="M 18.140625 -20.46875 L 20.03125 -33.875 L 35.421875 -33.875 L 22.5 -13.3125 L 24.734375 0 L 10.796875 0 L 13.0625 -13.3125 L 0.09375 -33.875 L 15.4375 -33.875 L 17.375 -20.46875 Z M 18.140625 -20.46875 "/></g></g></g></g></g><g clip-path="url(#2b7edd8c3c)"><path fill="#12271d" d="M 11.863281 1.117188 C 12.386719 3.960938 12.8125 4.382812 15.65625 4.90625 C 12.8125 5.429688 12.386719 5.855469 11.863281 8.699219 C 11.339844 5.855469 10.914062 5.429688 8.070312 4.90625 C 10.914062 4.382812 11.339844 3.960938 11.863281 1.117188 Z M 11.863281 1.117188 " fill-opacity="1" fill-rule="nonzero"/></g><g clip-path="url(#0fe14cb7c3)"><g clip-path="url(#265519fc66)"><g transform="matrix(1, 0, 0, 1, 9, 3)"><g clip-path="url(#d2710b2fd2)"><g clip-path="url(#e239fbc204)"><g clip-path="url(#da468a5a91)"><g clip-path="url(#c32f63d7f6)"><path fill="#12271d" d="M 5.289062 5.167969 C 2.902344 7.558594 3.144531 11.671875 3.144531 11.671875 C 3.144531 11.671875 7.308594 11.964844 9.695312 9.574219 C 12.082031 7.1875 11.792969 3.023438 11.792969 3.023438 C 11.792969 3.023438 7.675781 2.78125 5.289062 5.167969 " fill-opacity="1" fill-rule="nonzero"/></g></g></g></g></g></g></g><g clip-path="url(#2c6dab6f8d)"><g clip-path="url(#02316b99d4)"><g transform="matrix(1, 0, 0, 1, 0, 3)"><g clip-path="url(#45bf835af6)"><g clip-path="url(#d6b8c32117)"><g clip-path="url(#d23813eade)"><g clip-path="url(#166e154333)"><path fill="#12271d" d="M 5.035156 9.574219 C 7.425781 11.960938 11.539062 11.71875 11.539062 11.71875 C 11.539062 11.71875 11.832031 7.554688 9.445312 5.167969 C 7.054688 2.777344 2.890625 3.070312 2.890625 3.070312 C 2.890625 3.070312 2.648438 7.1875 5.035156 9.574219 " fill-opacity="1" fill-rule="nonzero"/></g></g></g></g></g></g></g><path stroke-linecap="round" transform="matrix(0.822696, 0, 0, 0.822696, 6.057367, 16.536498)" fill="none" stroke-linejoin="miter" d="M 1.501894 1.498772 L 12.626716 1.498772 " stroke="#12271d" stroke-width="3" stroke-opacity="1" stroke-miterlimit="4"/></g></g></svg>